<svg width="10" height="9" viewBox="0 0 10 9" fill="none" xmlns="http://www.w3.org/2000/svg">
<g clip-path="url(#clip0_57_404)">
<path d="M9.41007 2.41676L8.9592 1.96592C8.89913 1.90572 8.82992 1.87571 8.75168 1.87571C8.67363 1.87571 8.60445 1.90572 8.54437 1.96592L5.00005 5.51006L1.45588 1.96602C1.39577 1.90581 1.3266 1.8758 1.24845 1.8758C1.17027 1.8758 1.1011 1.90581 1.04102 1.96602L0.590212 2.41689C0.530008 2.47696 0.5 2.54614 0.5 2.62432C0.5 2.70243 0.530102 2.77161 0.590212 2.83168L4.79262 7.03418C4.8527 7.09429 4.9219 7.12433 5.00005 7.12433C5.07819 7.12433 5.14727 7.09429 5.20732 7.03418L9.41007 2.83168C9.47015 2.77157 9.5 2.7024 9.5 2.62432C9.5 2.54614 9.47015 2.47696 9.41007 2.41676Z" fill="#CC0000"/>
</g>
<defs>
<clipPath id="clip0_57_404">
<rect width="9" height="9" fill="white" transform="translate(0.5)"/>
</clipPath>
</defs>
</svg>
