<svg width="10" height="9" viewBox="0 0 10 9" fill="none" xmlns="http://www.w3.org/2000/svg">
<g clip-path="url(#clip0_57_359)">
<path d="M0.589927 6.58324L1.0408 7.03408C1.10087 7.09428 1.17008 7.12429 1.24832 7.12429C1.32637 7.12429 1.39555 7.09428 1.45563 7.03408L4.99995 3.48994L8.54412 7.03398C8.60423 7.09419 8.6734 7.1242 8.75155 7.1242C8.82973 7.1242 8.8989 7.09419 8.95898 7.03398L9.40979 6.58311C9.46999 6.52304 9.5 6.45386 9.5 6.37568C9.5 6.29757 9.4699 6.22839 9.40979 6.16832L5.20738 1.96582C5.14731 1.90571 5.0781 1.87567 4.99995 1.87567C4.92181 1.87567 4.85273 1.90571 4.79268 1.96582L0.589927 6.16831C0.529849 6.22842 0.5 6.2976 0.5 6.37568C0.5 6.45386 0.529849 6.52303 0.589927 6.58324Z" fill="#007E33"/>
</g>
<defs>
<clipPath id="clip0_57_359">
<rect width="9" height="9" fill="white" transform="translate(9.5 9) rotate(-180)"/>
</clipPath>
</defs>
</svg>
