<svg width="20" height="20" viewBox="0 0 20 20" fill="none" xmlns="http://www.w3.org/2000/svg">
<path d="M17.5 9.16667L4.51171 9.16667L8.92254 4.75583C9.24796 4.43041 9.24796 3.90291 8.92254 3.5775C8.59713 3.25208 8.06942 3.25208 7.744 3.5775L1.91067 9.41083C1.58525 9.73625 1.58525 10.264 1.91067 10.5892L7.744 16.4225C7.90671 16.5852 8.12004 16.6667 8.33338 16.6667C8.5465 16.6667 8.75983 16.5852 8.92254 16.4225C9.24796 16.0971 9.24796 15.5694 8.92254 15.2442L4.51171 10.8333L17.5 10.8333C17.96 10.8333 18.3334 10.4602 18.3334 10C18.3334 9.53979 17.9602 9.16667 17.5 9.16667Z" fill="#333333"/>
</svg>
