<svg width="19" height="20" viewBox="0 0 19 20" fill="none" xmlns="http://www.w3.org/2000/svg">
<path d="M9.23073 20C8.41468 20 7.63205 19.6758 7.05502 19.0988C6.47798 18.5217 6.15381 17.7391 6.15381 16.9231C6.15381 16.7191 6.23485 16.5234 6.37911 16.3791C6.52337 16.2349 6.71903 16.1538 6.92304 16.1538H11.5384C11.7424 16.1538 11.9381 16.2349 12.0824 16.3791C12.2266 16.5234 12.3077 16.7191 12.3077 16.9231C12.3077 17.7391 11.9835 18.5217 11.4064 19.0988C10.8294 19.6758 10.0468 20 9.23073 20ZM7.89996 17.6923C8.0352 17.9254 8.22931 18.119 8.46287 18.2535C8.69642 18.388 8.96121 18.4588 9.23073 18.4588C9.50025 18.4588 9.76505 18.388 9.9986 18.2535C10.2321 18.119 10.4263 17.9254 10.5615 17.6923H7.89996Z" fill="#9E9E9E"/>
<path d="M10.7692 3.07692H7.69233C7.48831 3.07692 7.29266 2.99588 7.1484 2.85162C7.00414 2.70736 6.9231 2.5117 6.9231 2.30769C6.9231 1.69565 7.16623 1.10868 7.599 0.675907C8.03178 0.243131 8.61875 0 9.23079 0C9.84283 0 10.4298 0.243131 10.8626 0.675907C11.2953 1.10868 11.5385 1.69565 11.5385 2.30769C11.5385 2.5117 11.4574 2.70736 11.3132 2.85162C11.1689 2.99588 10.9733 3.07692 10.7692 3.07692Z" fill="#9E9E9E"/>
<path d="M17.6923 17.6923H0.769232C0.56522 17.6923 0.369563 17.6113 0.225304 17.467C0.0810455 17.3227 1.6239e-06 17.1271 1.6239e-06 16.9231C-0.000672991 16.0543 0.208853 15.1983 0.610697 14.4281C1.01254 13.6579 1.59477 12.9964 2.30769 12.5V8.46153C2.30765 6.63338 3.03071 4.87943 4.31907 3.58242C5.60743 2.28541 7.35651 1.55064 9.18461 1.53845H9.26923C11.1053 1.53845 12.8663 2.26785 14.1646 3.56617C15.4629 4.8645 16.1923 6.62541 16.1923 8.46153V12.5C16.8981 13.0006 17.4729 13.664 17.8679 14.434C18.2629 15.2039 18.4665 16.0577 18.4615 16.9231C18.4615 17.1271 18.3805 17.3227 18.2362 17.467C18.092 17.6113 17.8963 17.6923 17.6923 17.6923ZM1.61539 16.1538H16.8461C16.7372 15.6205 16.5163 15.1165 16.1981 14.6749C15.8798 14.2333 15.4715 13.8643 15 13.5923C14.8826 13.5245 14.7852 13.4269 14.7177 13.3094C14.6501 13.1919 14.6148 13.0586 14.6154 12.9231V8.46153C14.6154 7.03344 14.0481 5.66384 13.0383 4.65403C12.0285 3.64422 10.6589 3.07691 9.23077 3.07691C7.80268 3.07691 6.43308 3.64422 5.42327 4.65403C4.41346 5.66384 3.84615 7.03344 3.84615 8.46153V12.9231C3.84669 13.0586 3.8114 13.1919 3.74386 13.3094C3.67632 13.4269 3.57893 13.5245 3.46154 13.5923C2.99008 13.8643 2.58173 14.2333 2.26348 14.6749C1.94524 15.1165 1.72433 15.6205 1.61539 16.1538Z" fill="#9E9E9E"/>
</svg>
