<svg width="16" height="13" viewBox="0 0 16 13" fill="none" xmlns="http://www.w3.org/2000/svg">
<path d="M15.8387 5.67313L13.9379 9.51613C13.5796 10.2511 12.676 10.2511 12.3176 9.51613L9.70023 4.22413L5.94551 11.8261C5.75855 12.1831 5.46254 12.4141 5.13536 12.4141C4.80819 12.4141 4.51217 12.2041 4.32521 11.8261L2.84514 8.84412L1.78571 10.9861C1.4897 11.5951 0.882084 11.7421 0.430271 11.3431C-0.0215421 10.9441 -0.1306 10.1251 0.165415 9.53713L2.03499 5.75713C2.22194 5.37913 2.51796 5.16913 2.84514 5.16913C3.17231 5.16913 3.46833 5.37913 3.65528 5.75713L5.13536 8.73913L8.89009 1.13713C9.24842 0.402126 10.152 0.402126 10.5104 1.13713L13.1278 6.40813L14.2184 4.20313C14.5144 3.59413 15.122 3.42613 15.5738 3.84613C16.01 4.24513 16.1347 5.06413 15.8387 5.67313Z" fill="#FE8902"/>
</svg>
