<svg width="18" height="17" viewBox="0 0 18 17" fill="none" xmlns="http://www.w3.org/2000/svg">
<path fill-rule="evenodd" clip-rule="evenodd" d="M8.46141 0.0165448C7.32557 0.0877563 6.22009 0.388831 5.18981 0.907531C4.62652 1.19113 4.17827 1.47783 3.69739 1.86208C2.26588 3.00594 1.23145 4.59554 0.773476 6.35519C0.191287 8.59215 0.547883 10.9861 1.75496 12.9445C3.08805 15.1073 5.31873 16.5708 7.81056 16.9174C9.31583 17.1268 10.8312 16.9384 12.2217 16.3689C12.5525 16.2334 13.1402 15.9338 13.4427 15.7465C15.4653 14.4938 16.8664 12.4893 17.33 10.1849C17.7082 8.30536 17.4523 6.39811 16.5932 4.69162C15.9608 3.43566 15.07 2.3977 13.9092 1.56439C13.4513 1.23572 12.7587 0.85378 12.219 0.63237C11.0413 0.149249 9.74178 -0.063744 8.46141 0.0165448ZM8.49958 2.75209C8.50478 3.47321 8.50499 3.47714 8.54621 3.56832C8.62482 3.74228 8.81426 3.86721 8.99945 3.86721C9.18464 3.86721 9.37408 3.74228 9.45268 3.56832C9.4939 3.47714 9.49411 3.47321 9.49932 2.75209L9.50452 2.02748H9.5732C9.68744 2.02748 10.1383 2.09548 10.3966 2.15164C11.3356 2.35587 12.2599 2.78935 12.9954 3.37041L13.1296 3.47646L12.6544 3.95387C12.3465 4.26322 12.1652 4.45877 12.1394 4.50938C12.1087 4.56945 12.0993 4.61753 12.0985 4.71765C12.0967 4.94412 12.2081 5.10919 12.4149 5.18661C12.526 5.22822 12.6241 5.23016 12.7495 5.19323C12.8382 5.16714 12.8734 5.13605 13.344 4.66821L13.8442 4.17094L13.8879 4.22301C14.3059 4.72073 14.5606 5.09966 14.8075 5.5912C15.2048 6.38209 15.4264 7.18762 15.4897 8.0706C15.4997 8.21081 15.5079 8.36507 15.5079 8.41338V8.50126H12.5061H9.50425L9.49918 7.61176C9.49411 6.72465 9.49399 6.72203 9.45396 6.63363C9.27763 6.24404 8.72126 6.24404 8.54493 6.63363C8.50491 6.72203 8.50478 6.72465 8.49972 7.61176L8.49465 8.50126H5.49036H2.48608L2.49797 8.25393C2.54495 7.27639 2.76712 6.43003 3.20297 5.56831C3.44668 5.08649 3.79614 4.57207 4.13417 4.19762C4.15376 4.17591 4.22916 4.2438 4.6561 4.66772C5.13484 5.14308 5.15923 5.16447 5.25684 5.19432C5.50031 5.26878 5.75992 5.15475 5.86431 4.92747C5.91659 4.81368 5.9143 4.61678 5.85947 4.50938C5.83365 4.45877 5.65233 4.26321 5.34438 3.95382L4.86917 3.47634L4.92536 3.43159C5.6171 2.88063 6.37385 2.49029 7.2245 2.24569C7.58224 2.14283 8.17394 2.03515 8.4128 2.02942L8.49437 2.02748L8.49958 2.75209Z" fill="#FE8902"/>
</svg>
