<svg width="15" height="21" viewBox="0 0 15 21" fill="none" xmlns="http://www.w3.org/2000/svg">
<path d="M14.8869 7.40647L6.69567 20.3759C6.6274 20.5807 6.35436 20.7172 6.14958 20.7172C6.08132 20.7172 6.01306 20.7172 5.9448 20.649C5.67176 20.5124 5.46698 20.2394 5.53524 19.8981L6.69567 11.1608H0.688758C0.415717 11.1608 0.210936 11.0243 0.0744154 10.8195C-0.0621053 10.6147 0.00615498 10.3417 0.142676 10.1369L6.96871 0.580437C7.17349 0.307396 7.44653 0.239136 7.71957 0.307396C7.99261 0.375656 8.19739 0.648697 8.19739 0.921739V6.38256H14.3408C14.6139 6.38256 14.8186 6.51908 14.9552 6.72386C15.0234 6.92865 15.0234 7.20169 14.8869 7.40647Z" fill="#FE8902"/>
</svg>
