<svg width="5" height="9" viewBox="0 0 5 9" fill="none" xmlns="http://www.w3.org/2000/svg">
<path d="M4.9623 3.08693L2.23189 8.70703C2.20914 8.79577 2.11812 8.85493 2.04986 8.85493C2.02711 8.85493 2.00435 8.85493 1.9816 8.82535C1.89059 8.76619 1.82233 8.64787 1.84508 8.49998L2.23189 4.7138H0.229586C0.138572 4.7138 0.070312 4.65465 0.0248051 4.56591C-0.0207018 4.47717 0.00205166 4.35885 0.0475585 4.27011L2.3229 0.128987C2.39116 0.0106687 2.48218 -0.0189108 2.57319 0.0106687C2.6642 0.0402482 2.73246 0.158566 2.73246 0.276884V2.64324H4.78027C4.87129 2.64324 4.93955 2.7024 4.98505 2.79114C5.00781 2.87988 5.00781 2.99819 4.9623 3.08693Z" fill="white"/>
</svg>
