<svg width="262" height="45" viewBox="0 0 262 45" fill="none" xmlns="http://www.w3.org/2000/svg">
<path fill-rule="evenodd" clip-rule="evenodd" d="M49.1907 0.664135C53.1398 2.18425 49.8133 3.7425 44.2534 2.9785C38.624 2.20398 25.1581 4.32898 20.6861 6.69726C16.6649 8.82753 18.939 9.06948 24.453 7.09964C36.5977 2.76021 52.7676 5.85173 58.912 13.6877C63.1626 19.1107 62.5151 21.5736 55.8595 25.3055C49.3231 28.9704 49.0112 28.6035 52.0913 20.8806C53.263 17.943 53.9223 15.2394 53.5566 14.8725C53.1909 14.5043 49.1357 16.5885 44.5457 19.5025C36.2832 24.7467 34.0668 24.819 36.7694 19.7524C39.2571 15.0881 38.417 14.3333 30.7377 14.3333C23.2878 14.3333 21.5577 15.3866 28.1137 15.931C32.3131 16.2795 32.4167 17.4906 28.9499 25.6067C27.4846 29.0335 26.4531 32.3025 26.6562 32.8706C26.8581 33.4387 30.8583 31.3097 35.5439 28.1406C44.0083 22.4152 46.2181 22.2166 43.4369 27.4292C41.037 31.9264 45.3871 32.292 53.5461 28.2774C57.5135 26.3246 61.1153 25.0859 61.5504 25.5225C63.4535 27.4318 57.9054 33.6885 51.3612 37.0167C43.0882 41.2233 34.886 41.7165 25.6352 38.5658C19.3164 36.4132 15.6374 36.9746 21.4725 39.1996C30.2816 42.5607 40.4773 43.3628 49.7386 41.4259C60.8505 39.101 65.6083 36.7537 70.1209 31.3742C75.0425 25.5067 74.842 18.4584 69.6032 13.2025C67.4301 11.0222 64.4811 8.86566 63.0498 8.41068C60.1493 7.48625 59.4612 3.81351 62.1887 3.81351C63.1455 3.81351 66.7053 5.65843 70.0987 7.9123C92.8914 23.0595 74.4921 45.3419 39.476 44.996C15.4421 44.7593 0.15564 35.7149 0.15564 21.7314C0.15564 10.2267 17.9835 0.434013 39.6962 0.0132201C43.7829 -0.0669936 48.0557 0.226247 49.1907 0.664135ZM58.9002 3.58733C59.2109 5.71102 58.6433 6.44347 56.6839 6.44347C53.2342 6.44347 51.9432 4.1988 53.9773 1.73979C56.1059 -0.833625 58.376 0.0197954 58.9002 3.58733ZM13.9178 10.3884C13.4721 11.1116 13.733 11.7034 14.4958 11.7034C15.2586 11.7034 15.8838 11.1116 15.8838 10.3884C15.8838 9.66517 15.6243 9.07343 15.3058 9.07343C14.9873 9.07343 14.3634 9.66517 13.9178 10.3884ZM8.78383 14.1571C8.21893 15.0737 8.11146 16.1783 8.54398 16.6122C9.71704 17.7891 10.9963 16.0586 10.3619 14.1519C9.91888 12.8159 9.60956 12.8159 8.78383 14.1571ZM6.05369 22.2232C6.49932 22.9465 7.41811 23.5382 8.09704 23.5382C8.77597 23.5382 9.33039 22.9465 9.33039 22.2232C9.33039 21.5 8.41029 20.9082 7.28704 20.9082C6.16379 20.9082 5.60806 21.5 6.05369 22.2232ZM8.01971 28.7981C8.01971 29.5213 8.60951 30.1131 9.33039 30.1131C10.0513 30.1131 10.6411 29.5213 10.6411 28.7981C10.6411 28.0749 10.0513 27.4831 9.33039 27.4831C8.60951 27.4831 8.01971 28.0749 8.01971 28.7981ZM12.5717 34.1159C12.1457 34.8076 13.0121 35.373 14.4958 35.373C17.6611 35.373 17.9796 34.6419 15.2704 33.5991C14.2127 33.1915 12.9977 33.4242 12.5717 34.1159Z" fill="#043D7D"/>
<path d="M95.1558 17.4091V27.5909H97.2438L101.296 21.7145H101.36V27.5909H103.821V17.4091H101.703L97.6962 23.2756H97.6117V17.4091H95.1558Z" fill="#043D7D"/>
<path d="M105.369 27.5909H107.83V24.429H109.5C111.832 24.429 113.288 23.0469 113.288 20.9339C113.288 18.8409 111.862 17.4091 109.575 17.4091H105.369V27.5909ZM107.83 22.4901V19.3928H109.043C110.146 19.3928 110.738 19.9893 110.738 20.9339C110.738 21.8736 110.146 22.4901 109.043 22.4901H107.83Z" fill="#043D7D"/>
<path d="M120.721 27.5909H123.788L119.662 22.2166L123.585 17.4091H120.507L117.355 21.3615H116.962V17.4091H114.501V27.5909H116.962V23.3651H117.519L120.721 27.5909Z" fill="#043D7D"/>
<path d="M125.975 27.7301H126.77C128.48 27.7301 129.226 26.6712 129.773 25.478L133.273 17.4091H130.787L128.968 21.983L126.705 17.4091H124.18L127.938 24.5831L127.824 24.8963C127.625 25.5376 127.347 25.7812 126.497 25.7812H125.975V27.7301Z" fill="#043D7D"/>
<path d="M134.621 19.4077H137.714V27.5909H140.14V19.4077H143.227V17.4091H134.621V19.4077Z" fill="#043D7D"/>
<path d="M153.207 21.098C152.958 18.6619 151.143 17.2699 148.682 17.2699C145.968 17.2699 143.855 19.1342 143.855 22.5C143.855 25.8508 145.918 27.7301 148.682 27.7301C151.476 27.7301 153.023 25.831 153.207 24.0263L150.721 24.0114C150.547 24.9908 149.811 25.5724 148.732 25.5724C147.28 25.5724 146.366 24.5234 146.366 22.5C146.366 20.5561 147.261 19.4276 148.747 19.4276C149.866 19.4276 150.596 20.0788 150.721 21.098H153.207Z" fill="#043D7D"/>
<path d="M160.834 27.5909H163.902L159.775 22.2166L163.698 17.4091H160.62L157.468 21.3615H157.076V17.4091H154.615V27.5909H157.076V23.3651H157.633L160.834 27.5909Z" fill="#043D7D"/>
<path d="M164.104 24.2003C164.224 26.3281 165.824 27.7301 168.365 27.7301C171.094 27.7301 172.71 25.8856 172.71 22.8729V22.1619C172.71 19.1491 171.015 17.2699 168.39 17.2699C165.65 17.2699 164.283 18.8707 164.089 20.8991H166.52C166.575 19.8551 166.968 19.2287 168.39 19.2287C169.623 19.2287 170.199 20.0142 170.294 21.6349H167.341V23.5739H170.284C170.18 25.0653 169.677 25.8111 168.365 25.8111C167.202 25.8111 166.56 25.2841 166.54 24.2003H164.104Z" fill="#043D7D"/>
<path d="M174.138 27.5909H176.599V23.4993H180.611V27.5909H183.067V17.4091H180.611V21.4957H176.599V17.4091H174.138V27.5909Z" fill="#043D7D"/>
<path d="M184.611 27.5909H191.71V25.5923H187.072V23.4993H191.347V21.4957H187.072V19.4077H191.71V17.4091H184.611V27.5909Z" fill="#043D7D"/>
<path d="M193.251 27.5909H195.712V24.429H197.383C199.715 24.429 201.171 23.0469 201.171 20.9339C201.171 18.8409 199.744 17.4091 197.457 17.4091H193.251V27.5909ZM195.712 22.4901V19.3928H196.925C198.029 19.3928 198.621 19.9893 198.621 20.9339C198.621 21.8736 198.029 22.4901 196.925 22.4901H195.712Z" fill="#043D7D"/>
<path d="M209.34 17.4091H202.384V27.5909H204.845V19.4077H209.34V17.4091Z" fill="#043D7D"/>
<path d="M219.692 22.5C219.692 19.1342 217.564 17.2699 214.829 17.2699C212.085 17.2699 209.972 19.1342 209.972 22.5C209.972 25.8508 212.085 27.7301 214.829 27.7301C217.564 27.7301 219.692 25.8658 219.692 22.5ZM217.176 22.5C217.176 24.4936 216.301 25.5724 214.829 25.5724C213.363 25.5724 212.483 24.4936 212.483 22.5C212.483 20.5064 213.363 19.4276 214.829 19.4276C216.301 19.4276 217.176 20.5064 217.176 22.5Z" fill="#043D7D"/>
<path d="M230.371 21.098C230.122 18.6619 228.307 17.2699 225.846 17.2699C223.132 17.2699 221.019 19.1342 221.019 22.5C221.019 25.8508 223.082 27.7301 225.846 27.7301C228.64 27.7301 230.187 25.831 230.371 24.0263L227.885 24.0114C227.711 24.9908 226.975 25.5724 225.896 25.5724C224.444 25.5724 223.53 24.5234 223.53 22.5C223.53 20.5561 224.425 19.4276 225.911 19.4276C227.03 19.4276 227.761 20.0788 227.885 21.098H230.371Z" fill="#043D7D"/>
<path d="M231.779 27.5909H235.582C238.073 27.5909 239.679 26.2287 239.679 24.255C239.679 22.2763 238.073 20.9986 235.582 20.9986H234.24V19.4077H238.734V17.4091H231.779V27.5909ZM234.24 25.642V22.9077H235.582C236.656 22.9077 237.243 23.4844 237.243 24.2351C237.243 25.0206 236.656 25.642 235.582 25.642H234.24Z" fill="#043D7D"/>
<path d="M243.363 20.9986V17.4091H240.907V27.5909H244.71C247.201 27.5909 248.807 26.2287 248.807 24.255C248.807 22.2763 247.201 20.9986 244.71 20.9986H243.363ZM252.038 17.4091H249.577V27.5909H252.038V17.4091ZM243.363 22.9077H244.71C245.784 22.9077 246.37 23.4844 246.365 24.2351C246.37 25.0206 245.784 25.642 244.71 25.642H243.363V22.9077Z" fill="#043D7D"/>
<path d="M253.239 19.4077H256.331V27.5909H258.757V19.4077H261.844V17.4091H253.239V19.4077Z" fill="#043D7D"/>
</svg>
