<svg width="18" height="18" viewBox="0 0 18 18" fill="none" xmlns="http://www.w3.org/2000/svg">
<path d="M14.5531 13.445C14.6287 13.1794 14.9053 13.0254 15.1709 13.1009C15.4365 13.1765 15.5905 13.4531 15.515 13.7187C15.2719 14.5727 14.5931 15.2421 13.716 15.4614L5.58847 17.4932C4.21459 17.8107 2.8669 16.9801 2.55485 15.6279L0.454437 6.5261C0.147954 5.19801 0.961776 3.86917 2.28408 3.5386L4.1731 3.06634C4.441 2.99937 4.71247 3.16225 4.77944 3.43014C4.84641 3.69804 4.68353 3.96951 4.41564 4.03648L2.52661 4.50874C1.73323 4.70708 1.24494 5.50439 1.42883 6.30124L3.52924 15.403C3.71646 16.2143 4.525 16.7126 5.35463 16.521L13.4734 14.4913C14.0001 14.3596 14.4071 13.9582 14.5531 13.445ZM17 10.2929V2.5C17 1.67157 16.3284 1 15.5 1H6.50002C5.67159 1 5.00002 1.67157 5.00002 2.5V8.29289L7.14646 6.14645C7.34172 5.95118 7.65831 5.95118 7.85357 6.14645L11.5637 9.8566L14.2227 8.08397C14.421 7.95177 14.685 7.97791 14.8536 8.14645L17 10.2929ZM16.9875 11.6946L14.4363 9.1434L11.7774 10.916C11.5791 11.0482 11.315 11.0221 11.1465 10.8536L7.50002 7.20711L5.00002 9.70711V11.5C5.00002 12.3284 5.67159 13 6.50002 13H15.5C16.2625 13 16.8921 12.4311 16.9875 11.6946ZM6.50002 0H15.5C16.8807 0 18 1.11929 18 2.5V11.5C18 12.8807 16.8807 14 15.5 14H6.50002C5.1193 14 4.00002 12.8807 4.00002 11.5V2.5C4.00002 1.11929 5.1193 0 6.50002 0ZM13 2H15C15.5523 2 16 2.44772 16 3V5C16 5.55228 15.5523 6 15 6H13C12.4477 6 12 5.55228 12 5V3C12 2.44772 12.4477 2 13 2ZM13 3V5H15V3H13Z" fill="#9E9E9E"/>
</svg>
