<svg width="13" height="13" viewBox="0 0 13 13" fill="none" xmlns="http://www.w3.org/2000/svg">
<rect x="0.5" y="0.5" width="12" height="12" stroke="black" stroke-dasharray="2 2"/>
<path d="M5.6875 8.11754H6.60156V8.05682C6.61435 7.32173 6.82528 6.99254 7.36861 6.65696C7.9407 6.31179 8.29226 5.82599 8.29226 5.10689C8.29226 4.06818 7.50604 3.36506 6.3331 3.36506C5.25604 3.36506 4.39311 3.99467 4.35156 5.14524H5.32315C5.36151 4.46768 5.84411 4.17045 6.3331 4.17045C6.87642 4.17045 7.31747 4.53161 7.31747 5.0973C7.31747 5.57351 7.02024 5.90909 6.63991 6.1456C6.04545 6.50994 5.69389 6.87109 5.6875 8.05682V8.11754ZM6.1701 10.0607C6.51847 10.0607 6.8093 9.77628 6.8093 9.42152C6.8093 9.07315 6.51847 8.78551 6.1701 8.78551C5.81854 8.78551 5.53089 9.07315 5.53089 9.42152C5.53089 9.77628 5.81854 10.0607 6.1701 10.0607Z" fill="black"/>
</svg>
