<svg width="17" height="17" viewBox="0 0 17 17" fill="none" xmlns="http://www.w3.org/2000/svg">
<g clip-path="url(#clip0_57_205)">
<path d="M8.49912 5.8481C8.10254 5.8481 7.84045 6.17916 7.84045 6.50677V10.4657C7.84045 10.8623 8.10254 11.1244 8.49912 11.1244C8.8957 11.1244 9.15783 10.7933 9.15783 10.4657V6.50677C9.15783 6.11019 8.8957 5.8481 8.49912 5.8481Z" fill="#FE8902"/>
<path d="M8.49912 13.7625C8.8629 13.7625 9.15779 13.4676 9.15779 13.1038C9.15779 12.74 8.8629 12.4451 8.49912 12.4451C8.13535 12.4451 7.84045 12.74 7.84045 13.1038C7.84045 13.4676 8.13535 13.7625 8.49912 13.7625Z" fill="#FE8902"/>
<path d="M16.6791 13.497L9.55445 1.95471C8.96131 1.0305 8.0371 1.0305 7.44395 1.95471L0.322726 13.497C-0.401466 14.7488 0.12616 15.7385 1.57454 15.7385H15.3583C16.8757 15.7385 17.4033 14.7522 16.6791 13.497ZM15.5584 15.0798H1.4435C0.719308 15.0798 0.453771 14.5522 0.850352 13.959L8.10607 2.22024C8.30263 1.82366 8.69922 1.82366 8.96472 2.22024L16.2204 13.959C16.5481 14.5522 16.2825 15.0798 15.5584 15.0798Z" fill="#FE8902"/>
</g>
<defs>
<clipPath id="clip0_57_205">
<rect width="17" height="17" fill="white"/>
</clipPath>
</defs>
</svg>
